<?xml version="1.0" encoding="utf-8"?>
<!-- Generator: Adobe Illustrator 15.0.2, SVG Export Plug-In . SVG Version: 6.00 Build 0)  -->
<!DOCTYPE svg PUBLIC "-//W3C//DTD SVG 1.1//EN" "http://www.w3.org/Graphics/SVG/1.1/DTD/svg11.dtd">
<svg version="1.1" id="Layer_1" xmlns="http://www.w3.org/2000/svg" xmlns:xlink="http://www.w3.org/1999/xlink" x="0px" y="0px"
	 width="239.099px" height="294.662px" viewBox="0 0 239.099 294.662" enable-background="new 0 0 239.099 294.662"
	 xml:space="preserve">
<g>
	<path fill="#333333" d="M192.068,131.403c0,0,22,33,29-17c0,0,8-29,9-16c0,0-3,53-23,52c0,0-14,5-22-10"/>
	<ellipse fill="#DECCC5" cx="123.253" cy="274.662" rx="78.889" ry="20"/>
	<path fill="#E42F92" d="M162.179,229.589l-1.481,34.073l9.63,7.408c0,0-10.37,2.222-17.037-6.667c0,0,8.149-28.148-2.222-32.593"/>
	<path fill="#E42F92" d="M92.217,239.589l1.481,34.073l-9.63,7.408c0,0,10.37,2.222,17.037-6.667c0,0-8.149-28.148,2.222-32.593"/>
	<g>
		<ellipse fill="#333333" cx="108.365" cy="164.403" rx="88.889" ry="81.481"/>
		<ellipse fill="#414243" cx="113.365" cy="159.403" rx="85.617" ry="78.481"/>
		<path fill="#414243" d="M71.772,96.366c0,0-2.224-22.222-2.964-22.963s0.74,0.741,0.74,0.741l58.52-10.371l6.667,25.926"/>
		
			<ellipse transform="matrix(0.9872 -0.1598 0.1598 0.9872 -10.0115 16.6355)" fill="#E42F92" cx="98.446" cy="70.576" rx="33.743" ry="7.534"/>
		<path fill="#333333" d="M72.031,91.7c0,0,58.519,5.926,61.481-10.371c0,0,8.888,31.852-65.186,23.704
			C68.327,105.033,61.661,102.07,72.031,91.7z"/>
		<path fill="#F176AE" d="M92.994,68.959c0,0-2.964-22.962-12.593-25.185l5.186-5.186c0,0,12.593,14.075,12.593,27.408
			C98.18,65.996,97.438,74.885,92.994,68.959z"/>
		<g>
			<path fill="#F176AE" d="M113.052,154.864c0,0-53.401-28.037-48.062,9.344c0,0,6.008,42.058,59.411,50.066l5.341-54.07"/>
			<path fill="#E42F92" d="M111.138,159.179c0,0-45.27-25.349-36.213,9.053c0,0,9.053,34.403,50.698,47.078
				c0,0,43.455-41.646,19.917-72.426C145.54,142.883,138.298,124.778,111.138,159.179z"/>
		</g>
		<polygon fill="#F176AE" points="83.031,33.7 76.115,33.763 77.878,40.451 72.539,36.054 69.59,42.311 68.327,35.51 62.047,38.408 
			65.45,32.387 58.776,30.569 65.254,28.145 61.31,22.462 67.831,24.769 68.461,17.88 71.975,23.839 76.885,18.968 75.746,25.79 
			82.639,25.215 77.382,29.709 		"/>
		<polygon fill="#F49BC2" points="68.703,56.408 57.594,56.508 60.426,67.252 51.85,60.188 47.112,70.238 45.084,59.316 
			34.996,63.97 40.463,54.298 29.742,51.378 40.146,47.483 33.811,38.356 44.287,42.061 45.299,30.996 50.942,40.567 58.83,32.743 
			57.001,43.701 68.072,42.778 59.629,49.997 		"/>
		<polygon fill="#E42F92" points="60.227,30.584 56.669,31.204 55.163,34.485 53.474,31.293 49.888,30.875 52.401,28.283 
			51.691,24.742 54.934,26.332 58.081,24.562 57.571,28.137 		"/>
		<path fill="#E42F92" d="M69.824,47.866c0,0-3.748-2.099-2.998,0.75c0,0,0.749,2.849,4.197,3.898c0,0,3.6-3.449,1.65-5.998
			C72.674,46.516,72.074,45.017,69.824,47.866z"/>
		<path fill="#E42F92" d="M69.584,3.487c0,0-7.495-4.198-5.995,1.5c0,0,1.498,5.698,8.394,7.798c0,0,7.199-6.898,3.301-11.997
			C75.283,0.788,74.084-2.21,69.584,3.487z"/>
		<path fill="#F176AE" d="M27.643,19.499c0,0-15.098,1.338-7.244,8.148c0,0,7.852,6.812,19.985,3.012c0,0,3.63-17.211-7.12-20.761
			C33.264,9.898,28.531,6.722,27.643,19.499z"/>
	</g>
	<path fill="#333333" d="M27.327,145.885c0,0-28.888,15.555-25.185,68.889c0,0,8.148,20.741,9.63-28.889
		c0,0,2.962-27.407,15.555-27.407"/>
	<circle fill="#333333" cx="60.661" cy="125.773" r="5.926"/>
	<circle fill="#DECCC5" cx="63.231" cy="124.525" r="3.673"/>
	<circle fill="#333333" cx="146.661" cy="118.773" r="5.926"/>
	<circle fill="#DECCC5" cx="149.231" cy="117.525" r="3.673"/>
	<ellipse fill="#333333" cx="228.888" cy="93.141" rx="5.384" ry="7.348"/>
	<path fill="#333333" d="M223.748,91.805c0,0-5.418-14.447-1.204-10.835c0,0,2.408,9.631,3.311,4.816c0,0-0.902-9.933,2.709-6.02
		c0,0-1.505,9.331,0.903,6.622c0,0,1.203-9.632,2.709-7.525c0,0,1.204,1.505,0.301,7.826c0,0,0.301,3.311,2.107,0
		c0,0,3.612-9.933,4.515-6.02c0,0-3.913,10.535-4.515,12.642"/>
	
		<ellipse transform="matrix(-0.9543 0.2987 -0.2987 -0.9543 77.4041 427.6409)" fill="#333333" cx="6.018" cy="219.736" rx="5.384" ry="7.348"/>
	<path fill="#333333" d="M11.322,219.476c0,0,9.487,12.169,4.387,9.98c0,0-5.176-8.471-4.599-3.605c0,0,3.829,9.209-0.786,6.554
		c0,0-1.352-9.354-2.841-6.05c0,0,1.729,9.552-0.337,7.99c0,0-1.599-1.076-2.625-7.378c0,0-1.276-3.069-2.012,0.63
		c0,0-0.479,10.559-2.51,7.094c0,0,0.587-11.223,0.531-13.414"/>
	<path fill="#333333" d="M224.725,97.825"/>
</g>
</svg>
