<?xml version="1.0" encoding="utf-8"?>
<!-- Generator: Adobe Illustrator 15.0.2, SVG Export Plug-In . SVG Version: 6.00 Build 0)  -->
<!DOCTYPE svg PUBLIC "-//W3C//DTD SVG 1.1//EN" "http://www.w3.org/Graphics/SVG/1.1/DTD/svg11.dtd">
<svg version="1.1" id="Layer_1" xmlns="http://www.w3.org/2000/svg" xmlns:xlink="http://www.w3.org/1999/xlink" x="0px" y="0px"
	 width="315px" height="124.282px" viewBox="0 0 315 124.282" enable-background="new 0 0 315 124.282" xml:space="preserve">
<g>
	<path fill="#C78543" d="M50.497,116.789l46.896,0.673c27.127,12.849,33.551-2.143,33.551-2.143c0-4.997,10.708-9.991,10.708-9.991
		c6.425-4.998,0.715-15.704,0.715-15.704c-0.715-2.856-2.856,4.285,2.141-7.851c0.624-1.517,0.993-2.905,1.159-4.185
		c1.161-8.949-7.584-12.218-7.584-12.218c0-10.709-7.139-11.401-7.139-11.401c-18.56-6.425-53.736,28.026-53.736,28.026L50,78.282"
		/>
	<rect y="75.282" fill="#1D311F" width="55" height="46"/>
	<path d="M52,89.282l25-5c0,0,39-29,51-28c0,0,9-1,7,9l4-2c0,0,6.074-38-60.963,17l-26.037-2"/>
	<polyline points="124.563,64.198 139,62.867 139,65.282 124.923,66.293 	"/>
	<path d="M133.731,64.378c0,0,10.521,5.384,10.277,9.788c0,0,0.489,6.362-6.117,14.192l4.649,0.489c0,0,11.5-18.598-4.649-24.715"/>
	<path d="M137.892,88.358c0,0,11.012,12.724-1.713,16.884c0,0-7.342,5.629-7.586,9.299c0,0-3.425,11.989-29.118,1.223l-46.248-1.223
		l-0.245,3.181l44.411-0.26c0,0,23.177,16.01,33.551-2.143c0,0,4.99-6.651,9.15-8.854c0,0,11.501-3.426,2.447-17.618"/>
	<path fill="#FCF9CE" d="M136.925,70.234c0,0,7.324,2.567-2.219,12.845c0,0,9.044-1.893,6.599-11.436c0,0-1.232-2.361-4.413-3.361
		H135"/>
	<path fill="#FCF9CE" d="M136.626,92.518c0,0,5.384,7.341-3.426,9.788l-2.447,0.979C130.753,103.284,146.169,103.039,136.626,92.518
		z"/>
	<path fill="#FCF9CE" d="M126.901,110.604c0,0-1.468,13.458-24.714,0.979C102.188,111.583,122.986,128.712,126.901,110.604z"/>
	<path fill="#FCF9CE" d="M130.5,60.782c0,0-4.5-4.5-14.5,2.5C116,63.282,126,53.282,130.5,60.782z"/>
</g>
<g>
	<path fill="#CCCC99" d="M262.014,115.789l-46.896,0.673c-27.127,12.849-33.551-2.143-33.551-2.143
		c0-4.997-10.708-9.991-10.708-9.991c-6.425-4.998-0.715-15.704-0.715-15.704c0.715-2.856,2.856,4.285-2.141-7.851
		c-0.624-1.517-0.993-2.905-1.159-4.185c-1.161-8.949,7.584-12.218,7.584-12.218c0-10.709,7.139-11.401,7.139-11.401
		c18.56-6.425,53.736,28.026,53.736,28.026l27.207-3.714"/>
	<rect x="257" y="75.282" fill="#78C14E" stroke="#183319" stroke-width="6" stroke-miterlimit="10" width="55" height="46"/>
	<path d="M257.51,88.282l-25-5c0,0-39-29-51-28c0,0-9-1-7,9l-4-2c0,0-6.074-38,60.963,17l26.037-2"/>
	<polyline points="188.191,63.198 174,61.867 174,64.282 187.955,65.293 	"/>
	<path d="M178.778,63.378c0,0-10.521,5.384-10.277,9.788c0,0-0.489,6.362,6.117,14.192l-4.649,0.489c0,0-11.5-18.598,4.649-24.715"
		/>
	<path d="M174.618,87.358c0,0-11.012,12.724,1.713,16.884c0,0,7.342,5.629,7.586,9.299c0,0,3.425,11.989,29.118,1.223l46.248-1.223
		l0.244,3.181l-44.41-0.26c0,0-23.177,16.01-33.551-2.143c0,0-4.99-6.651-9.15-8.854c0,0-11.501-3.426-2.447-17.618"/>
	<path fill="#FCF9CE" d="M175.83,69.234c0,0-7.447,2.567,2.096,12.845c0,0-9.104-1.893-6.659-11.436c0,0,1.171-2.361,4.352-3.361
		H178"/>
	<path fill="#FCF9CE" d="M175.884,91.518c0,0-5.384,7.341,3.426,9.788l2.447,0.979C181.757,102.284,166.341,102.039,175.884,91.518z
		"/>
	<path fill="#FCF9CE" d="M185.608,109.604c0,0,1.468,13.458,24.714,0.979C210.322,110.583,189.523,127.712,185.608,109.604z"/>
	<path fill="#FCF9CE" d="M182.01,59.782c0,0,4.5-4.5,14.5,2.5C196.51,62.282,186.51,52.282,182.01,59.782z"/>
</g>
<path fill="#1D311F" d="M153.767,43.105C153.675,41.524,149.142,0,149.142,0l6.884,0.128L153.767,43.105z"/>
<path fill="#1D311F" d="M145.729,43.501c-0.625-0.74-18.371-19.144-18.371-19.144l4.398-3.291L145.729,43.501z"/>
<path fill="#1D311F" d="M164.066,45.423c0.708-1.049,20.77-27.699,20.77-27.699l-4.777-2.723L164.066,45.423z"/>
</svg>
