<?xml version="1.0" encoding="utf-8"?>
<!-- Generator: Adobe Illustrator 15.0.0, SVG Export Plug-In  -->
<!DOCTYPE svg PUBLIC "-//W3C//DTD SVG 1.1//EN" "http://www.w3.org/Graphics/SVG/1.1/DTD/svg11.dtd" [
	<!ENTITY ns_flows "http://ns.adobe.com/Flows/1.0/">
]>
<svg version="1.1"
	 xmlns="http://www.w3.org/2000/svg" xmlns:xlink="http://www.w3.org/1999/xlink" xmlns:a="http://ns.adobe.com/AdobeSVGViewerExtensions/3.0/"
	 x="0px" y="0px" width="172px" height="324px" viewBox="-7.652 -11.527 172 324"
	 overflow="visible" enable-background="new -7.652 -11.527 172 324" xml:space="preserve">
<defs>
</defs>
<path fill="#FCCB98" d="M133.569,244.364l-5.775,51.968l-5.773,0.722l-4.33-20.932c0,0-10.105-8.661-10.105-31.036"/>
<path fill="#EE3A39" d="M127.747,296.332c0,0,13.656,3.69,15.812,10.333l-27.313-4.429c0,0,3.595-3.69,5.751-5.166"/>
<path fill="#FFFFFF" d="M136.843,304.113l1.481-2.507c0,0,3.646,1.938,3.875,3.533L136.843,304.113z"/>
<polygon points="143.454,306.545 143.225,308.938 115.645,304.037 116.443,302.101 "/>
<path d="M128.866,297.276l2.963-4.217c0,0-6.496-1.938-6.496-0.114l0.114,4.217L128.866,297.276z"/>
<path fill="#F4F5F5" d="M136.159,300.809l-1.025-0.798l-3.19,2.735l1.253,0.798c0,0,1.596-2.621,2.508-2.621"/>
<path fill="#F4F5F5" d="M133.69,299.707l-1.14-0.684l-2.963,2.507l1.14,0.342C130.727,301.872,132.436,299.707,133.69,299.707z"/>
<path fill="#F4F5F5" d="M131.524,298.264l-1.139-0.684l-2.963,2.507l1.139,0.342C128.561,300.429,130.271,298.264,131.524,298.264z"
	/>
<path fill="#FCCB98" d="M36.736,238.59l5.774,51.968l5.774,0.722l4.331-20.931c0,0,10.105-8.662,10.105-31.037"/>
<path fill="#2D241B" d="M33.849,193.118l-0.722,44.75c0,0,33.923,12.271,36.811-2.165c0,0,10.826-33.202,24.54-7.939l4.331,15.879
	c0,0,31.758,14.436,44.75-8.661l-7.939-48.359"/>
<path fill="#FCCB98" d="M65.607,79.078c0,0,2.165,16.601-15.879,18.766c0,0,41.142,18.044,51.968-5.052c0,0-22.375,0-19.488-14.436"
	/>
<ellipse fill="#FCCB98" cx="70.461" cy="44.47" rx="33.657" ry="34.391"/>
<path d="M79.872,2.077C19.242-15.245,38.008,81.473,38.008,81.473h72.178C111.629,10.473,79.872,2.077,79.872,2.077z M56.682,28.035
	c2.991,0.458,5.271,2.812,5.271,5.656c0,3.171-2.834,5.743-6.331,5.743c-1.983,0-3.752-0.829-4.913-2.124
	c-5.517-3.276-7.2-12.333-7.2-12.333 M71.21,77.412c-11.958,0-21.653-5.333-21.653-11.91s9.695-11.909,21.653-11.909
	s21.654,5.332,21.654,11.909S83.168,77.412,71.21,77.412z M87.233,36.588c-1.162,1.295-2.93,2.124-4.914,2.124
	c-3.496,0-6.33-2.571-6.33-5.743c0-2.844,2.28-5.198,5.271-5.656c0.468-0.181,0.982-0.345,1.549-0.489c0,0,2.959-2.078,11.623-2.568
	C94.432,24.255,92.749,33.312,87.233,36.588z"/>
<path fill="#F8EE6B" d="M55.129,21.58l1.866-8.101l-4.979,1.414l2.641-9.513l0.857,4.093h5.041l9.458,37.459
	c0,0-24.537-1.26-24.537,12.124l4.685,19.445l-5.13-7.563l-2.677,3.579c0,0-7.361-17.394,6.022-26.986
	c0,0-10.707-12.712-9.814-22.972l5.576-9.145l0.484,3.793l4.276-0.223v3.074l4.331,0.34l-0.614,2.075h-5.773l-0.25-0.817
	l-2.677-1.89l-1.338,1.62c0,0-6.915-0.468,7.138,16.262l11.599-0.156l-2.007-23.414"/>
<path fill="none" stroke="#EE3A39" stroke-width="3.6089" stroke-miterlimit="10" d="M42.13,25.177c0,0,3.792,17.398,16.729,15.391
	c0,0,8.476-5.576,0.446-13.83c0,0-14.276-3.346-16.729-3.123L42.13,25.177z"/>
<path fill="#F8EE6B" d="M81.756,19.29l-3.465-7.557l5.162,0.379l-4.475-8.629l0.019,4.336l-4.937,1.019L72.333,47.28
	c0,0,23.761-6.268,26.464,6.84l-0.668,19.952l3.493-8.463l3.343,2.954c0,0,3.695-18.527-11.352-25.217
	c0,0,7.918-14.615,4.971-24.484l-7.309-7.83l0.395,3.791l-4.13,0.624l0.62,3.01l-4.227,1.46l1.193,3.451l5.977-0.833l1.83-1.2
	l1.339,1.388l0.224,0.669c0,0,6.603-6.703-3.781,12.52l-11.395,2.179L76.555,14.75"/>
<path fill="none" stroke="#EE3A39" stroke-width="3.6089" stroke-miterlimit="10" d="M96.686,23.733c0,0-3.793,17.399-16.73,15.391
	c0,0-7.936-4.355,0.094-12.609c0,0,13.736-4.566,16.19-4.344L96.686,23.733z"/>
<ellipse fill="#996733" cx="53.03" cy="33.527" rx="1.87" ry="1.987"/>
<ellipse fill="#FFFFFF" cx="54.921" cy="32.708" rx="1.403" ry="1.636"/>
<ellipse fill="#996733" cx="83.345" cy="32.083" rx="1.871" ry="1.987"/>
<ellipse fill="#FFFFFF" cx="85.235" cy="31.265" rx="1.403" ry="1.636"/>
<path fill="#CB9798" d="M55.388,60.527c0,0,18,7.48,31.325-0.467"/>
<path fill="#2E67B1" d="M49.728,97.844L36.015,149.09c0,0-20.932,25.262,6.496,48.359c0,0,100.327,33.201,88.778-41.863
	c0,0,3.608-18.044-2.887-18.044l-25.263-47.637C103.139,89.904,78.599,113.001,49.728,97.844z"/>
<path fill="#FCCB98" d="M51.894,136.82c0,0,49.081-3.609,67.125,5.052c0,0,52.689,14.436,31.759-23.818
	c0,0-24.54-18.044-59.907,5.774C90.87,123.828,54.781,128.158,51.894,136.82z"/>
<path fill="#FCCB98" d="M48.066,111.335c0,0-45.695-9.895-48.066,26.325c0,0,14.64,24.214,63.697-8.69c0,0,22.55-8.318,32.391-3.748
	C96.088,125.223,57.292,109.479,48.066,111.335z"/>
<path fill="#2E67B1" d="M54.425,98.565c0,0-39.938-9.383-48.725,22.375l1.598,2.887c0,0,34.347-20.209,58.31-9.383"/>
<path fill="#2E67B1" d="M103.139,89.904c0,0,45.473,2.887,47.638,28.149c0,0-7.939-9.383-45.472-2.887"/>
<ellipse fill="#2E67B1" cx="80.403" cy="172.187" rx="60.99" ry="33.924"/>
<polygon fill="#2D241B" points="67.051,65.364 69.216,69.695 70.66,72.582 76.434,64.642 "/>
<path fill="#EE3A39" d="M42.558,290.558c0,0-13.656,3.69-15.813,10.333l27.313-4.428c0,0-3.594-3.691-5.75-5.167"/>
<path fill="#FFFFFF" d="M33.461,298.34l-1.481-2.508c0,0-3.647,1.938-3.875,3.533L33.461,298.34z"/>
<polygon points="26.852,300.771 27.08,303.164 54.659,298.264 53.861,296.326 "/>
<path d="M41.439,291.502l-2.963-4.217c0,0,6.496-1.938,6.496-0.114l-0.114,4.217L41.439,291.502z"/>
<path fill="#F4F5F5" d="M34.145,295.034l1.026-0.798l3.191,2.735l-1.253,0.798c0,0-1.596-2.621-2.507-2.621"/>
<path fill="#F4F5F5" d="M36.615,293.933l1.14-0.684l2.963,2.507l-1.14,0.342C39.578,296.098,37.868,293.933,36.615,293.933z"/>
<path fill="#F4F5F5" d="M38.78,292.489l1.14-0.684l2.962,2.507l-1.14,0.342C41.743,294.654,40.034,292.489,38.78,292.489z"/>
</svg>
